<svg width="500" height="370" viewBox="0 0 500 370" fill="none" xmlns="http://www.w3.org/2000/svg" role="img" aria-labelledby="title desc">
  <title id="title">Istekao verifikacioni link</title><desc id="desc">Kompaktna ilustracija peščanog sata sa narandžastim detaljem i biljkom.</desc>
  <defs><linearGradient id="c" x1="101" y1="27" x2="373" y2="312" gradientUnits="userSpaceOnUse"><stop stop-color="#FFF9F2"/><stop offset="1" stop-color="#FBE8D7"/></linearGradient><filter id="s" x="123" y="78" width="243" height="248" filterUnits="userSpaceOnUse"><feDropShadow dx="0" dy="15" stdDeviation="13" flood-color="#8C7461" flood-opacity=".15"/></filter></defs>
  <circle cx="239" cy="181" r="142" fill="url(#c)"/><ellipse cx="252" cy="291" rx="126" ry="14" fill="#D9C4AF" fill-opacity=".22"/>
  <g filter="url(#s)"><path d="M165 98H285L275 112H175L165 98Z" fill="#D7D5D2"/><path d="M175 276H275L285 290H165L175 276Z" fill="#D1CECA"/><rect x="178" y="108" width="94" height="174" rx="10" fill="#FFF" fill-opacity=".62" stroke="#D5D5D3" stroke-width="4"/><path d="M186 119C188 157 207 173 225 189C244 205 260 221 264 268H187C191 221 207 205 226 189C245 173 262 157 264 119H186Z" fill="#FFF" fill-opacity=".48"/><path d="M190 122H260C257 153 243 166 226 181C208 166 193 153 190 122Z" fill="#DA9940" fill-opacity=".76"/><path d="M188 266C192 232 207 212 226 195C245 212 260 232 264 266H188Z" fill="#D89335"/></g>
  <circle cx="294" cy="265" r="28" fill="#F4A22A"/><path d="M294 251V268" stroke="white" stroke-width="5.5" stroke-linecap="round"/><circle cx="294" cy="278" r="3.3" fill="white"/>
  <path d="M332 267C329 239 316 221 298 204" stroke="#9A7731" stroke-width="5" stroke-linecap="round"/><path d="M327 247C341 228 359 223 376 228C371 246 354 257 330 260L327 247Z" fill="#D98624"/><path d="M322 235C309 218 292 213 276 218C281 235 296 245 321 248L322 235Z" fill="#E8A446"/><path d="M315 267H357L351 322H321L315 267Z" fill="#D8D0C4"/>
</svg>
