<svg width="720" height="540" viewBox="0 0 720 540" fill="none" xmlns="http://www.w3.org/2000/svg" role="img" aria-labelledby="title desc">
  <title id="title">Istekao verifikacioni link</title><desc id="desc">Minimalistični peščani sat sa narandžastim detaljem i biljkom.</desc>
  <defs><linearGradient id="circle" x1="165" y1="57" x2="491" y2="441" gradientUnits="userSpaceOnUse"><stop stop-color="#FFF8F0"/><stop offset="1" stop-color="#FBE9D8"/></linearGradient><linearGradient id="glass" x1="255" y1="149" x2="397" y2="365" gradientUnits="userSpaceOnUse"><stop stop-color="#FFF" stop-opacity=".88"/><stop offset="1" stop-color="#EEF0F2" stop-opacity=".46"/></linearGradient><filter id="shadow" x="179" y="105" width="306" height="335" filterUnits="userSpaceOnUse"><feDropShadow dx="0" dy="19" stdDeviation="18" flood-color="#8C7461" flood-opacity=".16"/></filter></defs>
  <circle cx="334" cy="271" r="208" fill="url(#circle)"/><ellipse cx="354" cy="410" rx="178" ry="18" fill="#D9C4AF" fill-opacity=".22"/>
  <g filter="url(#shadow)"><path d="M239 145H416L402 164H253L239 145Z" fill="#D7D5D2"/><path d="M253 365H402L416 384H239L253 365Z" fill="#D1CECA"/><rect x="257" y="157" width="141" height="214" rx="14" fill="url(#glass)" stroke="#D5D5D3" stroke-width="5"/><path d="M267 171C269 219 297 239 326 261C356 284 381 304 386 357H270C276 305 301 284 329 261C359 238 384 218 387 171H267Z" fill="#FFF" fill-opacity=".52"/><path d="M273 174H382C378 217 356 234 328 255C301 233 278 216 273 174Z" fill="#D39B46" fill-opacity=".74"/><path d="M270 355C276 316 298 293 328 267C358 293 380 316 386 355H270Z" fill="#D9983F"/><path d="M328 257V281" stroke="#D9973E" stroke-width="8" stroke-linecap="round"/></g>
  <circle cx="428" cy="347" r="39" fill="#F4A22A"/><path d="M428 327V350" stroke="white" stroke-width="7" stroke-linecap="round"/><circle cx="428" cy="365" r="4" fill="white"/>
  <path d="M457 385C455 348 438 325 415 302" stroke="#9A7731" stroke-width="7" stroke-linecap="round"/><path d="M451 360C469 336 491 328 514 334C508 358 486 373 455 376L451 360Z" fill="#D98624"/><path d="M445 345C429 321 407 314 386 321C391 345 412 359 443 362L445 345Z" fill="#E8A446"/><path d="M436 380H496L487 468H446L436 380Z" fill="#D8D0C4"/><path d="M436 380H496L492 395H440L436 380Z" fill="#EEE9E2"/>
  <path d="M190 90L184 65" stroke="#F2A33C" stroke-width="6" stroke-linecap="round"/><path d="M219 102L239 85" stroke="#F2A33C" stroke-width="6" stroke-linecap="round"/><path d="M229 132L255 136" stroke="#F2A33C" stroke-width="6" stroke-linecap="round"/>
</svg>
